<svg width="125" height="34" viewBox="0 0 125 34" fill="none" xmlns="http://www.w3.org/2000/svg">
<g clip-path="url(#clip0)" filter="url(#filter0_d)">
<path d="M20.388 14.4403C20.3481 14.4877 20.3099 14.5369 20.2675 14.5815L20.2667 14.5908L16.2844 19.0455L16.2777 19.0436C16.0135 19.3412 15.699 19.5772 15.3528 19.7382C15.0065 19.8992 14.6351 19.9819 14.26 19.9815H10.34C10.2623 19.9814 10.1853 19.9984 10.1135 20.0315C10.0417 20.0647 9.97641 20.1134 9.92143 20.1749C9.86644 20.2362 9.82282 20.3092 9.79306 20.3895C9.76329 20.4697 9.74798 20.5558 9.74798 20.6427V24.5578L9.73552 24.5587C9.71429 24.7029 9.65795 24.8377 9.57269 24.9484C9.48744 25.059 9.37656 25.1413 9.25224 25.1861C9.12792 25.2309 8.99497 25.2365 8.86797 25.2024C8.74098 25.1682 8.62486 25.0956 8.53236 24.9925L8.52987 24.9943L4.9179 20.9566L4.92122 20.9501C4.64466 20.6535 4.42462 20.2974 4.27435 19.9032C4.12409 19.509 4.04671 19.0849 4.04688 18.6563V8.55374C4.04688 7.69752 4.34995 6.9221 4.84151 6.34913L4.83985 6.34356L8.93508 1.76352L8.93674 1.76445C9.46821 1.18117 10.1833 0.854683 10.9279 0.855317H14.26C14.6852 0.855317 15.087 0.96211 15.4483 1.14877V1.14134C15.7572 1.30199 16.0378 1.51836 16.2736 1.78395L16.2786 1.78117L21.1394 7.21741L21.1402 13.5943H26.8281V23.5029C26.8297 23.5085 26.8297 23.515 26.8297 23.5215V23.7453C26.8047 24.1475 26.6442 24.524 26.3807 24.799C26.1172 25.0741 25.7703 25.2272 25.4098 25.2274H22.5592C22.3623 25.2272 22.1677 25.1815 21.9873 25.0929C21.8071 25.0043 21.6451 24.875 21.5118 24.713C21.3785 24.5509 21.2766 24.3597 21.2127 24.1515C21.1487 23.9432 21.124 23.7224 21.1402 23.5029V13.5943L20.388 14.4403ZM14.8562 13.6018C14.9339 13.6019 15.0109 13.5849 15.0827 13.5517C15.1546 13.5185 15.2198 13.4699 15.2748 13.4084C15.3298 13.3471 15.3734 13.2741 15.4032 13.1938C15.433 13.1136 15.4483 13.0275 15.4483 12.9406V7.89439C15.4483 7.80748 15.433 7.72142 15.4032 7.64114C15.3734 7.56086 15.3298 7.48793 15.2748 7.42652C15.2198 7.36511 15.1546 7.31643 15.0827 7.28326C15.0109 7.25008 14.9339 7.23308 14.8562 7.2332V7.23227H10.3392C10.1823 7.23227 10.0318 7.30189 9.92084 7.42586C9.80984 7.54984 9.74737 7.71801 9.74715 7.89345V12.9387C9.74715 13.3047 10.012 13.6 10.3392 13.6H14.8545L14.8562 13.6018Z" fill="#8476AA"/>
<path d="M21.1436 13.601H26.8314L21.1436 7.22589V13.601Z" fill="#8476AA"/>
<path d="M34.894 6.16701H40.1575C42.3081 6.16701 44.2162 6.16701 45.3654 8.01222C45.8661 8.84148 46.1069 10.0227 46.1069 11.0173C46.1069 11.8252 45.9583 12.6136 45.6619 13.2971C44.5318 15.9094 42.1221 15.9716 40.3427 16.0124H38.1747V20.8005H34.894V6.16701ZM38.1763 8.86194V13.2971H40.1426C41.3673 13.2971 42.8511 13.2563 42.8511 10.9969C42.8511 8.86103 41.1996 8.86103 40.2538 8.86103L38.1763 8.86194ZM50.0377 11.0981C50.6679 10.4963 51.3538 10.02 52.836 9.85368V12.6731L51.891 12.8384C50.5201 13.1076 50.1116 13.3361 50.1116 14.704V20.7977H47.2578V9.95769H50.0377V11.0981ZM63.9741 15.3652C63.9741 18.1019 62.5658 21.1069 58.7845 21.1069C56.0602 21.1069 53.5766 19.3657 53.5766 15.3652C53.5766 12.049 55.4482 9.41633 59.1557 9.64474C63.1031 9.8936 63.9741 13.3965 63.9741 15.3652ZM56.9312 13.2321C56.5791 13.8543 56.4496 14.6019 56.4496 15.3494C56.4496 17.072 57.1903 18.5875 58.7845 18.5875C60.3231 18.5875 61.0829 17.1964 61.0829 15.4952C61.0829 14.2907 60.823 13.3566 60.2858 12.7752C59.6929 12.153 59.0253 12.1316 58.6176 12.1735C57.8022 12.2356 57.3206 12.5468 56.932 13.2321H56.9312ZM66.2916 8.89724C66.2916 8.3586 66.3281 7.63241 66.6985 7.05201C67.0514 6.5134 67.8477 5.95343 69.1828 5.95343C69.7574 5.95343 70.3321 6.05744 70.8875 6.13916V8.52391H70.2017C69.1272 8.52391 69.0716 8.77277 69.0899 10.2233H70.9988V12.1716H69.1081V20.7949H66.2725V12.1716H64.753V10.2233H66.2916V8.89724Z" fill="#8476AA"/>
<path d="M72.4254 8.61479H75.2413V6.14835H72.4254V8.61479ZM72.4254 20.8031H75.2413V9.96229H72.4254V20.8031Z" fill="#8476AA"/>
<path d="M78.1514 6.84488H80.9869V10.2233H82.8592V12.1715H80.9686V17.0432C80.9503 17.7062 80.9503 18.2661 81.7104 18.2661L82.7292 18.2244V20.7113C82.1182 20.8153 81.747 20.8775 81.2288 20.8775C80.2452 20.8775 79.1709 20.8153 78.5592 19.8198C78.1704 19.1781 78.1521 18.4111 78.1521 17.3747V12.1511H76.7431V10.2028H78.1514V6.84488Z" fill="#8476AA"/>
<path d="M93.5666 6.16724C93.9568 7.7422 94.3449 9.31807 94.7703 10.894C95.4944 13.7124 95.6238 14.1684 96.0316 17.0081C96.4204 14.1062 96.5132 13.6094 97.1059 10.6238C97.3843 9.13148 97.6804 7.63912 97.9588 6.16724H101.202L97.8849 20.8007H94.5115C94.1044 19.1849 93.7143 17.5672 93.2882 15.9718C92.5837 13.2769 92.5465 13.1728 92.157 11.1215C91.8244 12.9249 91.7871 13.0698 91.0454 15.8678L89.7848 20.8007H86.4121L83.0949 6.16724H86.3572C87.7655 13.1106 87.9145 13.8777 88.3026 17.049C88.7843 14.1479 88.915 13.588 89.6005 10.6859L90.6748 6.16724H93.5666Z" fill="#8476AA"/>
<path d="M110.784 18.0464C110.45 18.6063 110.116 19.145 109.616 19.6632C108.781 20.5342 107.521 21.1972 105.965 21.1972C103.092 21.1972 101.072 19.145 101.072 15.6003C101.072 12.9891 102.221 9.6311 106.039 9.6311C106.614 9.6311 108.281 9.6933 109.523 11.1856C110.784 12.6993 110.857 14.8128 110.895 16.0359H103.982C103.963 17.3824 104.649 18.7308 106.188 18.7308C107.744 18.7308 108.281 17.5904 108.634 16.8234L110.784 18.0464ZM107.947 14.0366C107.892 13.5824 107.818 12.9844 107.41 12.5098C107.057 12.117 106.522 11.9109 106.02 11.9109C105.335 11.9109 104.853 12.2823 104.575 12.6129C104.185 13.0875 104.093 13.5824 104 14.0366H107.947Z" fill="#8476AA"/>
<path d="M112.547 20.8007H115.401V6.16724H112.547V20.8007Z" fill="#8476AA"/>
<path d="M117.952 20.8007H120.806V6.16724H117.952V20.8007Z" fill="#8476AA"/>
</g>
<defs>
<filter id="filter0_d" x="0.046875" y="0.516846" width="125.188" height="33" filterUnits="userSpaceOnUse" color-interpolation-filters="sRGB">
<feFlood flood-opacity="0" result="BackgroundImageFix"/>
<feColorMatrix in="SourceAlpha" type="matrix" values="0 0 0 0 0 0 0 0 0 0 0 0 0 0 0 0 0 0 127 0"/>
<feOffset dy="4"/>
<feGaussianBlur stdDeviation="2"/>
<feColorMatrix type="matrix" values="0 0 0 0 0 0 0 0 0 0 0 0 0 0 0 0 0 0 0.25 0"/>
<feBlend mode="normal" in2="BackgroundImageFix" result="effect1_dropShadow"/>
<feBlend mode="normal" in="SourceGraphic" in2="effect1_dropShadow" result="shape"/>
</filter>
<clipPath id="clip0">
<rect width="117.188" height="25" fill="#8476AA" transform="translate(4.04688 0.516846)"/>
</clipPath>
</defs>
</svg>
