<svg width="325" height="675" viewBox="0 0 325 675" fill="none" xmlns="http://www.w3.org/2000/svg">
<path d="M192.775 454.603C192.775 451.947 194.579 449.793 196.803 449.793C199.027 449.793 200.832 451.947 200.832 454.603C200.832 457.259 199.027 459.413 196.803 459.413C194.579 459.443 192.775 457.259 192.775 454.603Z" fill="url(#paint0_linear)"/>
<path d="M197.47 377.759H196.136V451.858H197.47V377.759Z" fill="url(#paint1_linear)"/>
<path d="M88.8518 347.009C88.8518 344.353 90.656 342.199 92.8802 342.199C95.1045 342.199 96.9086 344.353 96.9086 347.009C96.9086 349.665 95.1045 351.819 92.8802 351.819C90.656 351.819 88.8518 349.665 88.8518 347.009Z" fill="url(#paint2_linear)"/>
<path d="M93.5473 152.449H92.2128V344.235H93.5473V152.449Z" fill="url(#paint3_linear)"/>
<path d="M42.9081 181.192C42.9081 178.536 44.7122 176.382 46.9365 176.382C49.1608 176.382 50.965 178.536 50.965 181.192C50.965 183.848 49.1608 186.002 46.9365 186.002C44.7369 186.032 42.9081 183.877 42.9081 181.192Z" fill="url(#paint4_linear)"/>
<path d="M47.6286 72.1816H46.294V178.447H47.6286V72.1816Z" fill="url(#paint5_linear)"/>
<path d="M167.641 264.942C167.641 262.286 169.445 260.131 171.669 260.131C173.893 260.131 175.697 262.286 175.697 264.942C175.697 267.598 173.893 269.752 171.669 269.752C169.445 269.781 167.641 267.598 167.641 264.942Z" fill="url(#paint6_linear)"/>
<path d="M172.336 155.931H171.002V262.197H172.336V155.931Z" fill="url(#paint7_linear)"/>
<path d="M295.166 273.322C295.166 270.667 296.97 268.512 299.194 268.512C301.418 268.512 303.222 270.667 303.222 273.322C303.222 275.978 301.418 278.133 299.194 278.133C296.97 278.133 295.166 275.978 295.166 273.322Z" fill="url(#paint8_linear)"/>
<path d="M299.886 164.312H298.551V270.578H299.886V164.312Z" fill="url(#paint9_linear)"/>
<path d="M155.802 353.767C155.802 351.111 157.606 348.957 159.831 348.957C162.055 348.957 163.859 351.111 163.859 353.767C163.859 356.423 162.055 358.577 159.831 358.577C157.606 358.607 155.802 356.423 155.802 353.767Z" fill="url(#paint10_linear)"/>
<path d="M160.523 151.711H159.188V350.993H160.523V151.711Z" fill="url(#paint11_linear)"/>
<path d="M179.256 317.233C179.256 314.577 181.06 312.423 183.285 312.423C185.509 312.423 187.313 314.577 187.313 317.233C187.313 319.889 185.509 322.044 183.285 322.044C181.06 322.044 179.256 319.889 179.256 317.233Z" fill="url(#paint12_linear)"/>
<path d="M183.977 155.371H182.642V314.46H183.977V155.371Z" fill="url(#paint13_linear)"/>
<path d="M121.771 528.555C121.771 525.899 123.575 523.745 125.799 523.745C128.024 523.745 129.828 525.899 129.828 528.555C129.828 531.211 128.024 533.365 125.799 533.365C123.6 533.365 121.771 531.211 121.771 528.555Z" fill="url(#paint14_linear)"/>
<path d="M126.491 159.177H125.157V525.781H126.491V159.177Z" fill="url(#paint15_linear)"/>
<path d="M239.287 369.378C239.287 366.722 241.091 364.568 243.315 364.568C245.539 364.568 247.344 366.722 247.344 369.378C247.344 372.034 245.539 374.188 243.315 374.188C241.091 374.188 239.287 372.034 239.287 369.378Z" fill="url(#paint16_linear)"/>
<path d="M244.007 0H242.673V366.604H244.007V0Z" fill="url(#paint17_linear)"/>
<path d="M300.454 389.887C300.454 387.231 302.259 385.077 304.483 385.077C306.707 385.077 308.511 387.231 308.511 389.887C308.511 392.543 306.707 394.697 304.483 394.697C302.259 394.697 300.454 392.543 300.454 389.887Z" fill="url(#paint18_linear)"/>
<path d="M305.15 20.5095H303.815V387.113H305.15V20.5095Z" fill="url(#paint19_linear)"/>
<path d="M53.6094 609.265C53.6094 606.609 55.4135 604.455 57.6378 604.455C59.862 604.455 61.6661 606.609 61.6661 609.265C61.6661 611.921 59.862 614.075 57.6378 614.075C55.4382 614.075 53.6094 611.921 53.6094 609.265Z" fill="url(#paint20_linear)"/>
<path d="M58.3298 239.887H56.9952V606.491H58.3298V239.887Z" fill="url(#paint21_linear)"/>
<path d="M311.427 464.046C311.427 461.39 313.232 459.236 315.456 459.236C317.68 459.236 319.484 461.39 319.484 464.046C319.484 466.702 317.68 468.856 315.456 468.856C313.232 468.856 311.427 466.702 311.427 464.046Z" fill="url(#paint22_linear)"/>
<path d="M316.148 94.6684H314.813V461.272H316.148V94.6684Z" fill="url(#paint23_linear)"/>
<path d="M0.894043 511.292C0.894043 508.636 2.69811 506.482 4.92239 506.482C7.14666 506.482 8.95081 508.636 8.95081 511.292C8.95081 513.948 7.14666 516.102 4.92239 516.102C2.69811 516.131 0.894043 513.977 0.894043 511.292Z" fill="url(#paint24_linear)"/>
<path d="M5.58975 305.695H4.25516V508.518H5.58975V305.695Z" fill="url(#paint25_linear)"/>
<path d="M70.3408 290.261C70.3408 287.605 72.1449 285.451 74.3692 285.451C76.5935 285.451 78.3976 287.605 78.3976 290.261C78.3976 292.917 76.5935 295.071 74.3692 295.071C72.1449 295.101 70.3408 292.947 70.3408 290.261Z" fill="url(#paint26_linear)"/>
<path d="M75.0612 140.616H73.7267V287.517H75.0612V140.616Z" fill="url(#paint27_linear)"/>
<path d="M289.976 549.507C289.976 546.851 291.78 544.697 294.004 544.697C296.228 544.697 298.032 546.851 298.032 549.507C298.032 552.163 296.228 554.318 294.004 554.318C291.78 554.318 289.976 552.163 289.976 549.507Z" fill="url(#paint28_linear)"/>
<path d="M294.696 343.881H293.361V546.704H294.696V343.881Z" fill="url(#paint29_linear)"/>
<defs>
<linearGradient id="paint0_linear" x1="196.804" y1="427.551" x2="196.804" y2="343.97" gradientUnits="userSpaceOnUse">
<stop stop-color="#A4FFFF"/>
<stop offset="1" stop-color="#A4FFFF" stop-opacity="0"/>
</linearGradient>
<linearGradient id="paint1_linear" x1="196.803" y1="434.896" x2="196.803" y2="376.591" gradientUnits="userSpaceOnUse">
<stop stop-color="#A4FFFF"/>
<stop offset="1" stop-color="#A4FFFF" stop-opacity="0"/>
</linearGradient>
<linearGradient id="paint2_linear" x1="92.8804" y1="319.939" x2="92.8804" y2="236.331" gradientUnits="userSpaceOnUse">
<stop stop-color="#A4FFFF"/>
<stop offset="1" stop-color="#A4FFFF" stop-opacity="0"/>
</linearGradient>
<linearGradient id="paint3_linear" x1="92.8791" y1="300.378" x2="92.8791" y2="149.471" gradientUnits="userSpaceOnUse">
<stop stop-color="#A4FFFF"/>
<stop offset="1" stop-color="#A4FFFF" stop-opacity="0"/>
</linearGradient>
<linearGradient id="paint4_linear" x1="46.9565" y1="154.132" x2="46.9565" y2="70.5242" gradientUnits="userSpaceOnUse">
<stop stop-color="#A4FFFF"/>
<stop offset="1" stop-color="#A4FFFF" stop-opacity="0"/>
</linearGradient>
<linearGradient id="paint5_linear" x1="46.9553" y1="154.133" x2="46.9553" y2="70.5252" gradientUnits="userSpaceOnUse">
<stop stop-color="#A4FFFF"/>
<stop offset="1" stop-color="#A4FFFF" stop-opacity="0"/>
</linearGradient>
<linearGradient id="paint6_linear" x1="171.667" y1="237.865" x2="171.667" y2="154.232" gradientUnits="userSpaceOnUse">
<stop stop-color="#A4FFFF"/>
<stop offset="1" stop-color="#A4FFFF" stop-opacity="0"/>
</linearGradient>
<linearGradient id="paint7_linear" x1="171.666" y1="237.872" x2="171.666" y2="154.265" gradientUnits="userSpaceOnUse">
<stop stop-color="#A4FFFF"/>
<stop offset="1" stop-color="#A4FFFF" stop-opacity="0"/>
</linearGradient>
<linearGradient id="paint8_linear" x1="299.209" y1="246.255" x2="299.209" y2="162.647" gradientUnits="userSpaceOnUse">
<stop stop-color="#A4FFFF"/>
<stop offset="1" stop-color="#A4FFFF" stop-opacity="0"/>
</linearGradient>
<linearGradient id="paint9_linear" x1="299.208" y1="246.255" x2="299.208" y2="162.648" gradientUnits="userSpaceOnUse">
<stop stop-color="#A4FFFF"/>
<stop offset="1" stop-color="#A4FFFF" stop-opacity="0"/>
</linearGradient>
<linearGradient id="paint10_linear" x1="159.845" y1="306.619" x2="159.845" y2="157.721" gradientUnits="userSpaceOnUse">
<stop stop-color="#A4FFFF"/>
<stop offset="1" stop-color="#A4FFFF" stop-opacity="0"/>
</linearGradient>
<linearGradient id="paint11_linear" x1="159.846" y1="306.621" x2="159.846" y2="157.725" gradientUnits="userSpaceOnUse">
<stop stop-color="#A4FFFF"/>
<stop offset="1" stop-color="#A4FFFF" stop-opacity="0"/>
</linearGradient>
<linearGradient id="paint12_linear" x1="183.3" y1="270.071" x2="183.3" y2="121.173" gradientUnits="userSpaceOnUse">
<stop stop-color="#A4FFFF"/>
<stop offset="1" stop-color="#A4FFFF" stop-opacity="0"/>
</linearGradient>
<linearGradient id="paint13_linear" x1="183.301" y1="279.021" x2="183.301" y2="160.155" gradientUnits="userSpaceOnUse">
<stop stop-color="#A4FFFF"/>
<stop offset="1" stop-color="#A4FFFF" stop-opacity="0"/>
</linearGradient>
<linearGradient id="paint14_linear" x1="125.82" y1="481.403" x2="125.82" y2="332.505" gradientUnits="userSpaceOnUse">
<stop stop-color="#A4FFFF"/>
<stop offset="1" stop-color="#A4FFFF" stop-opacity="0"/>
</linearGradient>
<linearGradient id="paint15_linear" x1="125.82" y1="444.142" x2="125.82" y2="170.24" gradientUnits="userSpaceOnUse">
<stop stop-color="#A4FFFF"/>
<stop offset="1" stop-color="#A4FFFF" stop-opacity="0"/>
</linearGradient>
<linearGradient id="paint16_linear" x1="243.327" y1="322.206" x2="243.327" y2="173.263" gradientUnits="userSpaceOnUse">
<stop stop-color="#A4FFFF"/>
<stop offset="1" stop-color="#A4FFFF" stop-opacity="0"/>
</linearGradient>
<linearGradient id="paint17_linear" x1="243.327" y1="284.958" x2="243.327" y2="11.0559" gradientUnits="userSpaceOnUse">
<stop stop-color="#A4FFFF"/>
<stop offset="1" stop-color="#A4FFFF" stop-opacity="0"/>
</linearGradient>
<linearGradient id="paint18_linear" x1="304.486" y1="342.72" x2="304.486" y2="193.782" gradientUnits="userSpaceOnUse">
<stop stop-color="#A4FFFF"/>
<stop offset="1" stop-color="#A4FFFF" stop-opacity="0"/>
</linearGradient>
<linearGradient id="paint19_linear" x1="304.486" y1="305.476" x2="304.486" y2="31.572" gradientUnits="userSpaceOnUse">
<stop stop-color="#A4FFFF"/>
<stop offset="1" stop-color="#A4FFFF" stop-opacity="0"/>
</linearGradient>
<linearGradient id="paint20_linear" x1="57.6556" y1="562.112" x2="57.6556" y2="413.215" gradientUnits="userSpaceOnUse">
<stop stop-color="#A4FFFF"/>
<stop offset="1" stop-color="#A4FFFF" stop-opacity="0"/>
</linearGradient>
<linearGradient id="paint21_linear" x1="57.6556" y1="524.852" x2="57.6556" y2="250.952" gradientUnits="userSpaceOnUse">
<stop stop-color="#A4FFFF"/>
<stop offset="1" stop-color="#A4FFFF" stop-opacity="0"/>
</linearGradient>
<linearGradient id="paint22_linear" x1="315.467" y1="416.9" x2="315.467" y2="268.047" gradientUnits="userSpaceOnUse">
<stop stop-color="#A4FFFF"/>
<stop offset="1" stop-color="#A4FFFF" stop-opacity="0"/>
</linearGradient>
<linearGradient id="paint23_linear" x1="315.467" y1="379.627" x2="315.467" y2="105.725" gradientUnits="userSpaceOnUse">
<stop stop-color="#A4FFFF"/>
<stop offset="1" stop-color="#A4FFFF" stop-opacity="0"/>
</linearGradient>
<linearGradient id="paint24_linear" x1="4.92564" y1="464.152" x2="4.92564" y2="315.255" gradientUnits="userSpaceOnUse">
<stop stop-color="#A4FFFF"/>
<stop offset="1" stop-color="#A4FFFF" stop-opacity="0"/>
</linearGradient>
<linearGradient id="paint25_linear" x1="4.92666" y1="463.363" x2="4.92666" y2="311.823" gradientUnits="userSpaceOnUse">
<stop stop-color="#A4FFFF"/>
<stop offset="1" stop-color="#A4FFFF" stop-opacity="0"/>
</linearGradient>
<linearGradient id="paint26_linear" x1="74.3858" y1="243.122" x2="74.3858" y2="94.2255" gradientUnits="userSpaceOnUse">
<stop stop-color="#A4FFFF"/>
<stop offset="1" stop-color="#A4FFFF" stop-opacity="0"/>
</linearGradient>
<linearGradient id="paint27_linear" x1="74.387" y1="254.793" x2="74.387" y2="145.047" gradientUnits="userSpaceOnUse">
<stop stop-color="#A4FFFF"/>
<stop offset="1" stop-color="#A4FFFF" stop-opacity="0"/>
</linearGradient>
<linearGradient id="paint28_linear" x1="294.022" y1="502.358" x2="294.022" y2="353.505" gradientUnits="userSpaceOnUse">
<stop stop-color="#A4FFFF"/>
<stop offset="1" stop-color="#A4FFFF" stop-opacity="0"/>
</linearGradient>
<linearGradient id="paint29_linear" x1="294.021" y1="501.556" x2="294.021" y2="350.012" gradientUnits="userSpaceOnUse">
<stop stop-color="#A4FFFF"/>
<stop offset="1" stop-color="#A4FFFF" stop-opacity="0"/>
</linearGradient>
</defs>
</svg>
