<svg width="261" height="662" viewBox="0 0 261 662" fill="none" xmlns="http://www.w3.org/2000/svg">
<path d="M176.178 403.757C176.178 401.101 177.982 398.946 180.207 398.946C182.431 398.946 184.235 401.101 184.235 403.757C184.235 406.412 182.431 408.567 180.207 408.567C178.007 408.567 176.178 406.412 176.178 403.757Z" fill="url(#paint0_linear)"/>
<path d="M180.898 294.717H179.564V400.953H180.898V294.717Z" fill="url(#paint1_linear)"/>
<path d="M-6.55829 272.938C-6.55829 270.282 -4.75415 268.128 -2.52988 268.128C-0.305604 268.128 1.49852 270.282 1.49852 272.938C1.49852 275.594 -0.305604 277.748 -2.52988 277.748C-4.75415 277.748 -6.55829 275.594 -6.55829 272.938Z" fill="url(#paint2_linear)"/>
<path d="M43.5126 159.885C43.5126 157.229 45.3167 155.075 47.541 155.075C49.7653 155.075 51.5694 157.229 51.5694 159.885C51.5694 162.541 49.7653 164.695 47.541 164.695C45.3167 164.695 43.5126 162.541 43.5126 159.885Z" fill="url(#paint3_linear)"/>
<path d="M48.2329 50.8455H46.8984V157.082H48.2329V50.8455Z" fill="url(#paint4_linear)"/>
<path d="M83.7472 184.29C83.7472 181.634 85.5513 179.48 87.7756 179.48C89.9999 179.48 91.804 181.634 91.804 184.29C91.804 186.946 89.9999 189.1 87.7756 189.1C85.5761 189.13 83.7472 186.975 83.7472 184.29Z" fill="url(#paint5_linear)"/>
<path d="M88.4676 75.2798H87.133V181.546H88.4676V75.2798Z" fill="url(#paint6_linear)"/>
<path d="M149.388 458.616C149.388 455.96 151.192 453.806 153.416 453.806C155.641 453.806 157.445 455.96 157.445 458.616C157.445 461.272 155.641 463.426 153.416 463.426C151.192 463.426 149.388 461.272 149.388 458.616Z" fill="url(#paint7_linear)"/>
<path d="M154.108 349.576H152.774V455.812H154.108V349.576Z" fill="url(#paint8_linear)"/>
<path d="M211.742 149.203C211.742 146.547 213.546 144.392 215.77 144.392C217.994 144.392 219.799 146.547 219.799 149.203C219.799 151.858 217.994 154.013 215.77 154.013C213.546 154.013 211.742 151.858 211.742 149.203Z" fill="url(#paint9_linear)"/>
<path d="M216.438 40.1923H215.103V146.429H216.438V40.1923Z" fill="url(#paint10_linear)"/>
<path d="M100.553 144.481C100.553 141.825 102.357 139.671 104.581 139.671C106.806 139.671 108.61 141.825 108.61 144.481C108.61 147.137 106.806 149.291 104.581 149.291C102.357 149.291 100.553 147.137 100.553 144.481Z" fill="url(#paint11_linear)"/>
<path d="M105.273 88.5889H103.939V141.707H105.273V88.5889Z" fill="url(#paint12_linear)"/>
<path d="M252.495 411.547C252.495 408.891 254.3 406.737 256.524 406.737C258.748 406.737 260.552 408.891 260.552 411.547C260.552 414.203 258.748 416.357 256.524 416.357C254.324 416.357 252.495 414.203 252.495 411.547Z" fill="url(#paint13_linear)"/>
<path d="M257.216 355.626H255.881V408.744H257.216V355.626Z" fill="url(#paint14_linear)"/>
<path d="M20.7261 130.08C20.7261 127.424 22.5302 125.27 24.7545 125.27C26.9787 125.27 28.7829 127.424 28.7829 130.08C28.7829 132.736 26.9787 134.89 24.7545 134.89C22.5302 134.89 20.7261 132.736 20.7261 130.08Z" fill="url(#paint15_linear)"/>
<path d="M25.4465 74.1584H24.1119V127.277H25.4465V74.1584Z" fill="url(#paint16_linear)"/>
<path d="M150.97 56.4819C150.97 53.826 152.774 51.6718 154.998 51.6718C157.222 51.6718 159.027 53.826 159.027 56.4819C159.027 59.1378 157.222 61.2921 154.998 61.2921C152.799 61.3216 150.97 59.1378 150.97 56.4819Z" fill="url(#paint17_linear)"/>
<path d="M155.69 0.589844H154.356V53.708H155.69V0.589844Z" fill="url(#paint18_linear)"/>
<path d="M94.918 445.218C94.918 442.562 96.7222 440.408 98.9464 440.408C101.171 440.408 102.975 442.562 102.975 445.218C102.975 447.874 101.171 450.028 98.9464 450.028C96.7222 450.028 94.918 447.874 94.918 445.218Z" fill="url(#paint19_linear)"/>
<path d="M99.6137 336.178H98.2791V442.444H99.6137V336.178Z" fill="url(#paint20_linear)"/>
<path d="M210.852 388.824C210.852 386.169 212.656 384.014 214.88 384.014C217.105 384.014 218.909 386.169 218.909 388.824C218.909 391.48 217.105 393.635 214.88 393.635C212.656 393.664 210.852 391.51 210.852 388.824Z" fill="url(#paint21_linear)"/>
<path d="M215.548 279.814H214.213V386.08H215.548V279.814Z" fill="url(#paint22_linear)"/>
<path d="M16.6977 656.51C16.6977 653.854 18.5018 651.7 20.7261 651.7C22.9504 651.7 24.7545 653.854 24.7545 656.51C24.7545 659.166 22.9504 661.32 20.7261 661.32C18.5018 661.35 16.6977 659.166 16.6977 656.51Z" fill="url(#paint23_linear)"/>
<path d="M21.3934 287.133H20.0588V653.736H21.3934V287.133Z" fill="url(#paint24_linear)"/>
<path d="M187.522 446.605C187.522 443.949 189.326 441.795 191.55 441.795C193.775 441.795 195.579 443.949 195.579 446.605C195.579 449.261 193.775 451.415 191.55 451.415C189.326 451.415 187.522 449.261 187.522 446.605Z" fill="url(#paint25_linear)"/>
<path d="M192.218 77.2275H190.883V443.831H192.218V77.2275Z" fill="url(#paint26_linear)"/>
<path d="M79.0021 554.052C79.0021 551.396 80.8062 549.241 83.0305 549.241C85.2548 549.241 87.0589 551.396 87.0589 554.052C87.0589 556.707 85.2548 558.862 83.0305 558.862C80.8062 558.891 79.0021 556.707 79.0021 554.052Z" fill="url(#paint27_linear)"/>
<path d="M83.7225 184.703H82.3879V551.307H83.7225V184.703Z" fill="url(#paint28_linear)"/>
<path d="M164.291 269.692C164.291 267.036 166.095 264.882 168.319 264.882C170.543 264.882 172.347 267.036 172.347 269.692C172.347 272.348 170.543 274.502 168.319 274.502C166.095 274.532 164.291 272.378 164.291 269.692Z" fill="url(#paint29_linear)"/>
<path d="M169.011 64.0955H167.676V266.918H169.011V64.0955Z" fill="url(#paint30_linear)"/>
<defs>
<linearGradient id="paint0_linear" x1="180.224" y1="376.674" x2="180.224" y2="293.066" gradientUnits="userSpaceOnUse">
<stop stop-color="#A4FFFF"/>
<stop offset="1" stop-color="#A4FFFF" stop-opacity="0"/>
</linearGradient>
<linearGradient id="paint1_linear" x1="180.227" y1="376.672" x2="180.227" y2="293.067" gradientUnits="userSpaceOnUse">
<stop stop-color="#A4FFFF"/>
<stop offset="1" stop-color="#A4FFFF" stop-opacity="0"/>
</linearGradient>
<linearGradient id="paint2_linear" x1="-2.53013" y1="245.853" x2="-2.53013" y2="162.22" gradientUnits="userSpaceOnUse">
<stop stop-color="#A4FFFF"/>
<stop offset="1" stop-color="#A4FFFF" stop-opacity="0"/>
</linearGradient>
<linearGradient id="paint3_linear" x1="47.557" y1="132.811" x2="47.557" y2="49.2028" gradientUnits="userSpaceOnUse">
<stop stop-color="#A4FFFF"/>
<stop offset="1" stop-color="#A4FFFF" stop-opacity="0"/>
</linearGradient>
<linearGradient id="paint4_linear" x1="47.5568" y1="132.809" x2="47.5568" y2="49.2039" gradientUnits="userSpaceOnUse">
<stop stop-color="#A4FFFF"/>
<stop offset="1" stop-color="#A4FFFF" stop-opacity="0"/>
</linearGradient>
<linearGradient id="paint5_linear" x1="87.7946" y1="157.228" x2="87.7946" y2="73.6176" gradientUnits="userSpaceOnUse">
<stop stop-color="#A4FFFF"/>
<stop offset="1" stop-color="#A4FFFF" stop-opacity="0"/>
</linearGradient>
<linearGradient id="paint6_linear" x1="87.7946" y1="157.229" x2="87.7946" y2="73.6217" gradientUnits="userSpaceOnUse">
<stop stop-color="#A4FFFF"/>
<stop offset="1" stop-color="#A4FFFF" stop-opacity="0"/>
</linearGradient>
<linearGradient id="paint7_linear" x1="153.431" y1="431.544" x2="153.431" y2="347.959" gradientUnits="userSpaceOnUse">
<stop stop-color="#A4FFFF"/>
<stop offset="1" stop-color="#A4FFFF" stop-opacity="0"/>
</linearGradient>
<linearGradient id="paint8_linear" x1="153.432" y1="431.537" x2="153.432" y2="347.932" gradientUnits="userSpaceOnUse">
<stop stop-color="#A4FFFF"/>
<stop offset="1" stop-color="#A4FFFF" stop-opacity="0"/>
</linearGradient>
<linearGradient id="paint9_linear" x1="215.771" y1="122.131" x2="215.771" y2="38.5231" gradientUnits="userSpaceOnUse">
<stop stop-color="#A4FFFF"/>
<stop offset="1" stop-color="#A4FFFF" stop-opacity="0"/>
</linearGradient>
<linearGradient id="paint10_linear" x1="215.77" y1="122.129" x2="215.77" y2="38.5238" gradientUnits="userSpaceOnUse">
<stop stop-color="#A4FFFF"/>
<stop offset="1" stop-color="#A4FFFF" stop-opacity="0"/>
</linearGradient>
<linearGradient id="paint11_linear" x1="104.593" y1="117.413" x2="104.593" y2="33.806" gradientUnits="userSpaceOnUse">
<stop stop-color="#A4FFFF"/>
<stop offset="1" stop-color="#A4FFFF" stop-opacity="0"/>
</linearGradient>
<linearGradient id="paint12_linear" x1="104.594" y1="129.564" x2="104.594" y2="87.7606" gradientUnits="userSpaceOnUse">
<stop stop-color="#A4FFFF"/>
<stop offset="1" stop-color="#A4FFFF" stop-opacity="0"/>
</linearGradient>
<linearGradient id="paint13_linear" x1="256.542" y1="384.464" x2="256.542" y2="300.856" gradientUnits="userSpaceOnUse">
<stop stop-color="#A4FFFF"/>
<stop offset="1" stop-color="#A4FFFF" stop-opacity="0"/>
</linearGradient>
<linearGradient id="paint14_linear" x1="256.542" y1="396.614" x2="256.542" y2="354.811" gradientUnits="userSpaceOnUse">
<stop stop-color="#A4FFFF"/>
<stop offset="1" stop-color="#A4FFFF" stop-opacity="0"/>
</linearGradient>
<linearGradient id="paint15_linear" x1="24.771" y1="102.988" x2="24.771" y2="19.3553" gradientUnits="userSpaceOnUse">
<stop stop-color="#A4FFFF"/>
<stop offset="1" stop-color="#A4FFFF" stop-opacity="0"/>
</linearGradient>
<linearGradient id="paint16_linear" x1="24.7711" y1="115.149" x2="24.7711" y2="73.3454" gradientUnits="userSpaceOnUse">
<stop stop-color="#A4FFFF"/>
<stop offset="1" stop-color="#A4FFFF" stop-opacity="0"/>
</linearGradient>
<linearGradient id="paint17_linear" x1="155.018" y1="29.4159" x2="155.018" y2="-54.1918" gradientUnits="userSpaceOnUse">
<stop stop-color="#A4FFFF"/>
<stop offset="1" stop-color="#A4FFFF" stop-opacity="0"/>
</linearGradient>
<linearGradient id="paint18_linear" x1="155.02" y1="41.5655" x2="155.02" y2="-0.233783" gradientUnits="userSpaceOnUse">
<stop stop-color="#A4FFFF"/>
<stop offset="1" stop-color="#A4FFFF" stop-opacity="0"/>
</linearGradient>
<linearGradient id="paint19_linear" x1="98.9571" y1="418.144" x2="98.9571" y2="334.536" gradientUnits="userSpaceOnUse">
<stop stop-color="#A4FFFF"/>
<stop offset="1" stop-color="#A4FFFF" stop-opacity="0"/>
</linearGradient>
<linearGradient id="paint20_linear" x1="98.9558" y1="418.144" x2="98.9558" y2="334.537" gradientUnits="userSpaceOnUse">
<stop stop-color="#A4FFFF"/>
<stop offset="1" stop-color="#A4FFFF" stop-opacity="0"/>
</linearGradient>
<linearGradient id="paint21_linear" x1="214.887" y1="361.756" x2="214.887" y2="278.123" gradientUnits="userSpaceOnUse">
<stop stop-color="#A4FFFF"/>
<stop offset="1" stop-color="#A4FFFF" stop-opacity="0"/>
</linearGradient>
<linearGradient id="paint22_linear" x1="214.888" y1="361.764" x2="214.888" y2="278.158" gradientUnits="userSpaceOnUse">
<stop stop-color="#A4FFFF"/>
<stop offset="1" stop-color="#A4FFFF" stop-opacity="0"/>
</linearGradient>
<linearGradient id="paint23_linear" x1="20.7345" y1="609.363" x2="20.7345" y2="460.466" gradientUnits="userSpaceOnUse">
<stop stop-color="#A4FFFF"/>
<stop offset="1" stop-color="#A4FFFF" stop-opacity="0"/>
</linearGradient>
<linearGradient id="paint24_linear" x1="20.7358" y1="572.105" x2="20.7358" y2="298.203" gradientUnits="userSpaceOnUse">
<stop stop-color="#A4FFFF"/>
<stop offset="1" stop-color="#A4FFFF" stop-opacity="0"/>
</linearGradient>
<linearGradient id="paint25_linear" x1="191.548" y1="399.452" x2="191.548" y2="250.555" gradientUnits="userSpaceOnUse">
<stop stop-color="#A4FFFF"/>
<stop offset="1" stop-color="#A4FFFF" stop-opacity="0"/>
</linearGradient>
<linearGradient id="paint26_linear" x1="191.55" y1="362.194" x2="191.55" y2="88.2923" gradientUnits="userSpaceOnUse">
<stop stop-color="#A4FFFF"/>
<stop offset="1" stop-color="#A4FFFF" stop-opacity="0"/>
</linearGradient>
<linearGradient id="paint27_linear" x1="83.0448" y1="506.905" x2="83.0448" y2="358.008" gradientUnits="userSpaceOnUse">
<stop stop-color="#A4FFFF"/>
<stop offset="1" stop-color="#A4FFFF" stop-opacity="0"/>
</linearGradient>
<linearGradient id="paint28_linear" x1="83.0461" y1="469.644" x2="83.0461" y2="195.745" gradientUnits="userSpaceOnUse">
<stop stop-color="#A4FFFF"/>
<stop offset="1" stop-color="#A4FFFF" stop-opacity="0"/>
</linearGradient>
<linearGradient id="paint29_linear" x1="168.33" y1="222.535" x2="168.33" y2="73.5918" gradientUnits="userSpaceOnUse">
<stop stop-color="#A4FFFF"/>
<stop offset="1" stop-color="#A4FFFF" stop-opacity="0"/>
</linearGradient>
<linearGradient id="paint30_linear" x1="168.33" y1="221.764" x2="168.33" y2="70.2206" gradientUnits="userSpaceOnUse">
<stop stop-color="#A4FFFF"/>
<stop offset="1" stop-color="#A4FFFF" stop-opacity="0"/>
</linearGradient>
</defs>
</svg>
